<svg xmlns="http://www.w3.org/2000/svg" width="855.65454pt" height="150pt" viewBox="0 0 855.65457 150"><g fill="#064898"><path d="M866.841 747.379v31.807H741.1c-10.827 0-27.892-1.923-27.892-25.288v-97.994c0-23.543 18.087-25.305 27.892-25.305h136.11s-3.15 30.497-35.264 31.332l-14.64.34-75.847.094c-.834 0-1.464.68-1.464 1.421v24.241s.247 1.26 1.413 1.26l123.086.017s-4.026 29.876-33.468 30.744l-16.938.05h-72.842s-1.302.163-1.302 1.601v24.139c0 .86.68 1.54 1.515 1.54zM518.265 779.197h50.03c39.716.01 87.764 0 87.764 0 20.921 0 26.062-10.988 26.062-20.683v-25.296c0-12.708-5.702-19.926-16.308-23.841l-109.987-39.869c-.553-.264-1.072-.68-1.072-1.362v-4.306c0-.903.621-1.532 1.523-1.532h93.092c29.637-.911 33.91-31.706 33.91-31.706h-138.74c-15.865 0-22.997 8.23-22.997 20.998v21.662c0 12.759 3.319 21.653 18.12 26.65l107.162 39.238c.587.247 1.123.74 1.123 1.362v4.596c0 .852-.74 1.473-1.523 1.473H551.74s-25.97-1.932-33.476 32.616M1034.945 661.88l-16.512.4-74.775.085c-.791 0-1.48.673-1.48 1.422v82.052c0 .86.689 1.54 1.48 1.54h119.801v31.817H933.172c-9.414 0-28.241-1.932-28.241-25.297v-98.002c0-23.527 18.197-25.297 28.241-25.297l135.267.017s-5.312 31.561-33.494 31.263M1098.184 630.435v123.52c0 21.033 11.38 25.178 27.918 25.178h108.404c15.746 0 27.807-4.145 27.807-25.178v-123.52h-36.668v116.32c0 .791-.578 1.591-1.523 1.591h-87.806c-.792 0-1.455-.8-1.455-1.591v-116.32Z" style="stroke-width:8.5116" transform="translate(-518.265 -630.38)"/><path d="M1336.877 630.38h37.042v150h-37.042z" style="stroke-width:8.51161" transform="translate(-518.265 -630.38)"/></g></svg>